<?xml version="1.0" encoding="utf-8"?>
<!-- Generator: Adobe Illustrator 24.0.2, SVG Export Plug-In . SVG Version: 6.00 Build 0)  -->
<svg version="1.1" xmlns="http://www.w3.org/2000/svg" xmlns:xlink="http://www.w3.org/1999/xlink" x="0px" y="0px"
	 viewBox="0 0 512 512" style="enable-background:new 0 0 512 512;" xml:space="preserve">
<style type="text/css">
	.st0{fill:#020203;}
	.st1{display:none;}
	.st2{display:inline;fill:#020203;}
	.st3{fill:#3AAA35;}
</style>
<g id="text">
	<g>
		<path class="st0" d="M40.6,290.1c-1.7,0-2.5-0.8-2.5-2.5c0-1.7,0.8-2.5,2.5-2.5h3.6v-39.4h-0.5l-8.4,42.4
			c-0.1,0.6-0.4,1.1-0.9,1.5c-0.5,0.4-1.1,0.6-1.8,0.6c-1.2,0-1.9-0.7-2.2-2L22,245.7h-0.5v39.4h3.6c1.6,0,2.5,0.8,2.5,2.5
			c0,1.6-0.8,2.5-2.5,2.5l-6.4-0.9l-5.8,0.9c-1.6,0-2.5-0.8-2.5-2.5c0-1.7,0.8-2.5,2.5-2.5h3.7v-39.4H13c-1.7,0-2.5-0.8-2.5-2.5
			c0-1.7,0.8-2.5,2.5-2.5l6.1,0.9l5-0.9c1.5,0,2.3,0.7,2.5,2.2l6.4,32.5l6.4-32.7c0.3-1.3,1.1-2,2.4-2l5.7,0.9l5.4-0.9
			c1.6,0,2.5,0.8,2.5,2.5c0,1.7-0.8,2.5-2.5,2.5h-3.6v39.4h3.7c1.7,0,2.5,0.8,2.5,2.5c0,1.6-0.8,2.5-2.5,2.5l-6.2-0.9L40.6,290.1z"
			/>
		<path class="st0" d="M92.2,285.1c3.3-0.3,3.3,5.3,0,5c0,0-14.8-0.9-14.8-0.9l-13.4,0.9c-3.3,0.3-3.3-5.3,0-5c0,0,9.4,0.9,9.4,0.9
			l1.4-0.9V261H64.1c-3.3,0.3-3.3-5.3,0-4.9c0,0,6.3,0.9,6.3,0.9l7-0.9c1.6,0,2.5,0.8,2.5,2.5v26.6
			C81.6,286.7,90.2,285.2,92.2,285.1z M76.4,243.2c5-0.1,6.3,7.1,1.8,8.9c-4.4,2.1-8.7-4.2-5-7.5v0
			C74.1,243.6,75.2,243.2,76.4,243.2z M182.6,285.6c3.3-0.3,3.3,5.3,0,5c0,0-14.8-0.9-14.8-0.9l-13.4,0.9c-3.3,0.3-3.3-5.3,0-5
			c0,0,9.4,0.9,9.4,0.9l1.4-0.9v-24.1h-10.8c-3.3,0.3-3.3-5.3,0-4.9c0,0,6.3,0.9,6.3,0.9l7-0.9c1.6,0,2.5,0.8,2.5,2.5v26.6
			C171.9,287.2,180.5,285.7,182.6,285.6z M166.8,243.6c5-0.1,6.3,7.1,1.8,8.9c-4.4,2.1-8.7-4.2-5-7.5v0
			C164.4,244.1,165.5,243.6,166.8,243.6z"/>
		<path class="st0" d="M105.6,261c-1.6,0-2.4-0.8-2.4-2.5c0-1.6,0.8-2.5,2.4-2.5l3.8,0.9l2.6-0.9c0.8,0,1.4,0.2,1.9,0.6
			c0.4,0.4,0.7,1,0.6,1.8l-0.1,5.1c1.4-1.3,2.7-2.4,3.9-3.4c1.2-0.9,2.4-1.7,3.5-2.4c1.1-0.6,2.3-1.1,3.3-1.4
			c1.1-0.3,2.2-0.5,3.3-0.5c2.9,0,5.2,1,6.8,2.9c1.7,1.9,2.6,4.6,2.7,8.2l0.4,18l2.4,0.9l1.8-0.9c1.6,0,2.5,0.8,2.5,2.5
			c0,1.6-0.8,2.5-2.5,2.5l-7.1-0.9l-6.6,0.9c-1.6,0-2.5-0.8-2.5-2.5c0-1.7,0.8-2.5,2.5-2.5l1.8,0.9l2.9-0.9l-0.5-17.9
			c-0.1-2.1-0.5-3.7-1.2-4.7c-0.7-1-1.8-1.5-3.4-1.5c-1.1,0-2.2,0.3-3.3,0.8c-1.2,0.5-2.3,1.2-3.5,2.1c-1.2,0.9-2.4,2-3.7,3.2
			c-1.3,1.2-2.5,2.5-3.7,4l-0.3,14.1l2.8,0.9l1.8-0.9c1.7,0,2.5,0.8,2.5,2.5c0,1.6-0.8,2.5-2.5,2.5l-7.2-0.9l-7.4,0.9
			c-1.6,0-2.5-0.8-2.5-2.5c0-1.7,0.8-2.5,2.5-2.5l2.1,0.9l3-0.9l0.2-14.2c-0.1-0.1-0.1-0.2-0.1-0.4c0-0.1,0-0.2,0-0.4
			c0-0.3,0-0.5,0.1-0.8l0.2-8.4H105.6z"/>
		<path class="st0" d="M194.6,261c-1.6,0-2.5-0.8-2.5-2.5c0-1.6,0.8-2.5,2.5-2.5l3.1,0.9l3.3-0.9c1.6,0,2.5,0.8,2.5,2.5v0.2
			c1.9-1.8,4.1-2.7,6.5-2.7c1.5,0,2.9,0.3,3.9,1c1.1,0.7,2,1.7,2.6,3.2c2.2-2.8,4.8-4.2,7.9-4.2c2.3,0,4.1,0.8,5.4,2.3
			c1.3,1.5,2,3.8,2,7l0.3,19.8h1.4c1.6,0,2.5,0.8,2.5,2.5c0,1.6-0.8,2.5-2.5,2.5l-3.7-0.9l-4.5,0.9c-1.7,0-2.5-0.8-2.5-2.5
			c0-1.7,0.8-2.5,2.5-2.5h1.8l-0.3-19.8c0-1.6-0.2-2.7-0.6-3.4c-0.3-0.7-1-1-2-1c-0.8,0-1.6,0.2-2.3,0.7c-0.7,0.5-1.4,1.2-2,2
			c-0.6,0.9-1.1,1.9-1.6,3c-0.4,1.2-0.7,2.4-0.9,3.8c0,0.1-0.1,0.2-0.1,0.3c0,0.1-0.1,0.2-0.1,0.2l0.2,14h1.4c1.6,0,2.5,0.8,2.5,2.5
			c0,1.6-0.8,2.5-2.5,2.5l-3.7-0.9l-4.5,0.9c-1.7,0-2.5-0.8-2.5-2.5c0-1.7,0.8-2.5,2.5-2.5h1.8l-0.3-19.8c0-1.6-0.2-2.7-0.6-3.4
			c-0.3-0.7-1-1-2-1c-0.8,0-1.5,0.2-2.2,0.6c-0.7,0.4-1.4,1-1.9,1.8c-0.6,0.8-1.1,1.7-1.5,2.8c-0.4,1.1-0.8,2.3-1,3.5l-0.3,15.4h1.5
			c1.7,0,2.5,0.8,2.5,2.5s-0.8,2.5-2.5,2.5l-5.1-0.9l-5.5,0.9c-1.6,0-2.5-0.8-2.5-2.5s0.8-2.5,2.5-2.5h4.1l0.3-14.2
			c-0.1-0.2-0.1-0.5-0.1-0.7c0-0.2,0-0.3,0-0.5c0-0.2,0.1-0.3,0.1-0.6l0.1-8.2H194.6z"/>
		<path class="st0" d="M249.3,262.2c0.4,0.6,0.6,1.2,0.6,1.8c0,1.1-0.4,2-1.1,2.6c-0.7,0.6-1.6,1-2.7,1c-1,0-1.8-0.4-2.4-1.1
			c-0.7-0.7-1-1.6-1-2.6c0-1.2,0.3-2.3,1-3.3c0.7-1,1.6-1.8,2.8-2.5c1.2-0.7,2.6-1.2,4.3-1.5c1.7-0.4,3.5-0.5,5.4-0.5
			c2.1,0,4.1,0.2,5.9,0.7c1.8,0.5,3.3,1.1,4.6,2c1.3,0.8,2.3,1.9,3,3.1c0.7,1.2,1.1,2.5,1.1,3.9v15.4c0,0.5,0,1,0.1,1.5
			c0.1,0.5,0.1,0.9,0.2,1.3c0.1,0.4,0.2,0.7,0.4,0.9c0.1,0.2,0.3,0.4,0.5,0.4c0.1,0,0.1,0,0.1,0c0.3-0.1,0.5-0.5,0.7-1.3
			c0.2-0.8,0.2-1.7,0.2-2.7v-0.5c0-1.7,0.9-2.5,2.6-2.5c0.7,0,1.3,0.2,1.7,0.6c0.4,0.4,0.6,1,0.6,1.8v0.6c0,3-0.5,5.3-1.6,6.7
			c-1.1,1.4-2.5,2.2-4.4,2.2h0.1c-1.3,0-2.5-0.4-3.4-1.2c-1-0.8-1.7-2-2.1-3.7c-4,3.2-7.9,4.9-11.8,4.9c-2,0-4-0.3-5.7-0.8
			c-1.8-0.5-3.3-1.2-4.6-2.1c-1.3-0.9-2.3-2-3-3.3c-0.7-1.3-1.1-2.7-1.1-4.2c0-4.1,1.6-6.8,4.7-8c3.1-1.2,6.7-2.2,10.7-2.9
			c1.8-0.3,3.7-0.7,5.5-1c1.8-0.4,3.4-1,4.8-1.7v-0.3c0-0.7-0.3-1.3-0.8-1.9c-0.5-0.6-1.2-1.1-2.1-1.5c-0.9-0.4-1.9-0.7-3.1-1
			s-2.4-0.3-3.7-0.3c-1.5,0-2.9,0.1-4.1,0.3C250.9,261.5,250,261.8,249.3,262.2z M265.9,279.1v-7.7c-1.5,0.6-3,1-4.6,1.3
			c-1.6,0.3-3.2,0.6-4.8,0.9c-1.5,0.3-2.9,0.6-4.2,0.9c-1.3,0.3-2.5,0.6-3.7,1c-2.3,0.7-3.4,2.1-3.4,4.2c0,0.8,0.2,1.5,0.7,2.2
			c0.5,0.7,1.1,1.2,2,1.7c0.8,0.5,1.9,0.9,3,1.1c1.2,0.3,2.4,0.4,3.8,0.4c1,0,2-0.2,2.9-0.5c0.9-0.3,1.9-0.7,2.8-1.3
			c0.9-0.5,1.8-1.2,2.8-1.9C264,280.7,265,279.9,265.9,279.1z"/>
		<path class="st0" d="M289.5,245.7c-1.6,0-2.5-0.8-2.5-2.5c0-1.6,0.8-2.5,2.5-2.5l8.6,0.9l5.7-0.9c1.6,0,2.5,0.8,2.5,2.5v41.9
			l5.7,0.9l7.2-0.9c1.7,0,2.5,0.8,2.5,2.5c0,1.6-0.8,2.5-2.5,2.5l-15.9-0.9l-13.7,0.9c-1.6,0-2.5-0.8-2.5-2.5c0-1.7,0.8-2.5,2.5-2.5
			l7.8,0.9l3.9-0.9v-39.4l-2.9-0.9L289.5,245.7z"/>
		<path class="st0" d="M404.8,258.4c0-0.8,0.2-1.4,0.7-1.8c0.4-0.4,1.1-0.6,1.9-0.6c0.8,0,1.4,0.2,1.8,0.6c0.4,0.4,0.6,1,0.6,1.7
			v0.2l-1,3.7l0.8,4.4c-0.1,0.8-0.3,1.4-0.7,1.8c-0.4,0.4-1,0.6-1.8,0.6c-0.5,0-0.9-0.1-1.3-0.3c-0.3-0.2-0.6-0.5-0.9-0.9
			c-0.8-1.4-1.6-2.5-2.4-3.4c-0.8-0.9-1.5-1.6-2.4-2.1c-0.8-0.5-1.7-0.9-2.7-1s-2-0.3-3.2-0.3c-1.3,0-2.5,0.1-3.7,0.3
			c-1.2,0.2-2.3,0.5-3.2,0.9c-0.9,0.4-1.7,0.8-2.3,1.2s-0.9,0.9-0.9,1.4c0,1,0.3,1.7,1,2.2c0.7,0.5,1.6,0.9,2.8,1.3
			c1.2,0.3,2.5,0.5,3.9,0.7s3,0.3,4.6,0.5c1.6,0.2,3.1,0.4,4.6,0.7c1.5,0.3,2.9,0.7,4.1,1.3c3.5,1.6,5.3,4.5,5.3,8.5
			c0,1.5-0.4,2.9-1.1,4.2c-0.7,1.3-1.7,2.3-3,3.2c-1.3,0.9-2.8,1.6-4.6,2.1c-1.8,0.5-3.7,0.7-5.8,0.7c-2.5,0-4.7-0.4-6.9-1.2
			c-2.1-0.8-3.8-2.1-5.1-3.7v2.5c0,1.6-0.8,2.5-2.5,2.5c-1.6,0-2.5-0.8-2.5-2.5l0.9-5.5l-0.9-5.7c0-0.7,0.3-1.3,0.8-1.8
			c0.5-0.5,1.2-0.8,1.9-0.8c0.8,0,1.5,0.5,2,1.5c0.7,1.5,1.4,2.8,2.2,4c0.7,1.2,1.6,2.2,2.5,3.1c0.9,0.8,2,1.5,3.2,2
			c1.2,0.5,2.7,0.7,4.4,0.7c1.3,0,2.6-0.1,3.8-0.3c1.2-0.2,2.2-0.6,3-1c0.8-0.5,1.5-1,2-1.7c0.5-0.6,0.7-1.4,0.7-2.2
			c0-1.2-0.4-2.2-1.1-2.9c-0.8-0.7-1.8-1.3-3-1.7c-1.2-0.4-2.6-0.7-4.2-0.9c-1.6-0.2-3.2-0.4-4.8-0.6c-1.6-0.2-3.2-0.4-4.8-0.7
			c-1.6-0.3-3-0.8-4.2-1.4c-1.2-0.6-2.2-1.5-3-2.6c-0.8-1.1-1.1-2.5-1.1-4.3c0-1.3,0.4-2.5,1.1-3.5c0.7-1.1,1.8-2,3.1-2.8
			c1.3-0.8,2.9-1.4,4.7-1.8c1.8-0.4,3.8-0.6,6-0.6c2.2,0,4.2,0.3,5.9,0.9c1.7,0.6,3.3,1.5,4.7,2.7L404.8,258.4z"/>
		<path class="st0" d="M429,261c-1.6,0-1.6-4.9,0-4.9h7.4v-10.7c0-1.7,0.8-2.5,2.5-2.5c1.6,0,2.5,0.8,2.5,2.5v10.7h12.4
			c1.6,0,2.5,0.8,2.5,2.5c0,1.6-0.8,2.5-2.5,2.5h-12.4v18.4c0,1.7,0.3,3.2,0.9,4.2c0.6,1.1,1.4,1.6,2.6,1.6c0.9,0,1.8-0.2,2.6-0.6
			c0.8-0.4,1.4-1,2-1.7c0.5-0.7,1-1.5,1.3-2.5c0.3-1,0.5-2,0.6-3.2c0.1-1.5,0.9-2.3,2.4-2.3c1.7,0,2.6,0.8,2.6,2.4
			c0,1.9-0.3,3.6-0.9,5.2c-0.6,1.6-1.4,2.9-2.4,4c-1,1.1-2.2,2-3.6,2.6c-1.4,0.6-2.8,0.9-4.4,0.9c-1.3,0-2.4-0.3-3.4-0.8
			c-1-0.5-1.9-1.2-2.7-2.2c-0.7-0.9-1.3-2.1-1.7-3.4c-0.4-1.3-0.6-2.8-0.6-4.4V261H429z"/>
		<path class="st0" d="M475.5,262.2c0.4,0.6,0.6,1.2,0.6,1.8c0,1.1-0.4,2-1.1,2.6c-0.7,0.6-1.6,1-2.7,1c-1,0-1.8-0.4-2.4-1.1
			c-0.7-0.7-1-1.6-1-2.6c0-1.2,0.3-2.3,1-3.3c0.7-1,1.6-1.8,2.8-2.5c1.2-0.7,2.6-1.2,4.3-1.5c1.7-0.4,3.5-0.5,5.4-0.5
			c2.1,0,4.1,0.2,5.9,0.7c1.8,0.5,3.3,1.1,4.6,2c1.3,0.8,2.3,1.9,3,3.1c0.7,1.2,1.1,2.5,1.1,3.9v15.4c0,0.5,0,1,0.1,1.5
			c0.1,0.5,0.1,0.9,0.2,1.3c0.1,0.4,0.2,0.7,0.4,0.9c0.1,0.2,0.3,0.4,0.5,0.4c0.1,0,0.1,0,0.1,0c0.3-0.1,0.5-0.5,0.7-1.3
			c0.2-0.8,0.2-1.7,0.2-2.7v-0.5c0-1.7,0.9-2.5,2.6-2.5c0.7,0,1.3,0.2,1.7,0.6c0.4,0.4,0.6,1,0.6,1.8v0.6c0,3-0.5,5.3-1.6,6.7
			c-1.1,1.4-2.5,2.2-4.4,2.2h0.1c-1.3,0-2.5-0.4-3.4-1.2c-1-0.8-1.7-2-2.1-3.7c-4,3.2-7.9,4.9-11.8,4.9c-2,0-4-0.3-5.7-0.8
			c-1.8-0.5-3.3-1.2-4.6-2.1c-1.3-0.9-2.3-2-3-3.3c-0.7-1.3-1.1-2.7-1.1-4.2c0-4.1,1.6-6.8,4.7-8c3.1-1.2,6.7-2.2,10.7-2.9
			c1.8-0.3,3.7-0.7,5.5-1c1.8-0.4,3.4-1,4.8-1.7v-0.3c0-0.7-0.3-1.3-0.8-1.9c-0.5-0.6-1.2-1.1-2.1-1.5c-0.9-0.4-1.9-0.7-3.1-1
			c-1.2-0.2-2.4-0.3-3.7-0.3c-1.5,0-2.9,0.1-4.1,0.3C477.1,261.5,476.2,261.8,475.5,262.2z M492.1,279.1v-7.7c-1.5,0.6-3,1-4.6,1.3
			c-1.6,0.3-3.2,0.6-4.8,0.9c-1.5,0.3-2.9,0.6-4.2,0.9c-1.3,0.3-2.5,0.6-3.7,1c-2.3,0.7-3.4,2.1-3.4,4.2c0,0.8,0.2,1.5,0.7,2.2
			c0.5,0.7,1.1,1.2,2,1.7c0.8,0.5,1.9,0.9,3,1.1c1.2,0.3,2.4,0.4,3.8,0.4c1,0,2-0.2,2.9-0.5c0.9-0.3,1.9-0.7,2.8-1.3
			c0.9-0.5,1.8-1.2,2.8-1.9C490.2,280.7,491.1,279.9,492.1,279.1z"/>
	</g>
	<path class="st0" d="M363.1,285.7c1.6,0,2.5,0.8,2.5,2.5c0,1.6-0.8,2.5-2.5,2.5l-14.8-0.9l-13.4,0.9c-1.6,0-2.5-0.8-2.5-2.5
		c0-1.7,0.8-2.5,2.5-2.5l9.4,0.9l1.4-0.9v-24.1H335c-1.6,0-2.5-0.8-2.5-2.5c0-1.6,0.8-2.5,2.5-2.5l6.3,0.9l7-0.9
		c1.6,0,2.5,0.8,2.5,2.5v26.6l2.4,0.9L363.1,285.7z M347.4,243.7c0.7,0,1.3,0.1,1.8,0.4c0.6,0.3,1.1,0.6,1.5,1
		c0.4,0.4,0.7,0.9,1,1.5c0.2,0.6,0.3,1.1,0.3,1.7c0,0.6-0.1,1.2-0.4,1.8c-0.3,0.6-0.6,1.1-1,1.5c-0.4,0.4-0.9,0.8-1.5,1
		c-0.6,0.3-1.2,0.4-1.8,0.4c-0.6,0-1.2-0.1-1.8-0.4c-0.6-0.3-1-0.6-1.5-1c-0.4-0.4-0.8-0.9-1-1.5c-0.3-0.6-0.4-1.2-0.4-1.8
		c0-1.2,0.5-2.3,1.4-3.2v0C345,244.2,346.1,243.7,347.4,243.7z"/>
</g>
<g id="obdelnik" class="st1">
	<rect x="-0.5" y="237.2" class="st2" width="512" height="56.9"/>
</g>
<g id="tecka_x5F_3">
</g>
<g id="logo">
	
		<image style="overflow:visible;enable-background:new    ;" width="374" height="377" id="Vrstva_4_1_" xlink:href="DD11D8DA.png"  transform="matrix(0.6186 0 0 0.6186 141.6919 7)">
	</image>
</g>
<g id="tecka_x5F_2">
</g>
<g id="tecka_x5F_1">
	<path class="st0" d="M343.3,286.3"/>
	<circle class="st3" cx="347.5" cy="248.4" r="5"/>
	<circle class="st3" cx="167.2" cy="248.4" r="5"/>
	<circle class="st3" cx="76.5" cy="248.4" r="5"/>
</g>
</svg>
